<?xml version="1.0" encoding="UTF-8"?><svg id="Layer_2" xmlns="http://www.w3.org/2000/svg" viewBox="0 0 792.82 321.69"><defs><style>.cls-1{fill:#1b1b1b;}.cls-2{fill:#282828;}</style></defs><g id="Layer_1-2"><g><path class="cls-2" d="M353.3,106.92c1.6-2.95,2.95-6.05,4.05-9.21l-19.33-6.64c-.73,2.12-1.64,4.15-2.69,6.1l17.98,9.76h-.01Z"/><path class="cls-2" d="M324.17,22.25c-3.07-1.34-6.29-2.44-9.53-3.26l-4.93,19.7c2.18,.54,4.3,1.27,6.34,2.17l8.14-18.62h-.01Z"/><path class="cls-2" d="M340.93,33.18c-2.46-2.26-5.12-4.33-7.91-6.15l-11.11,17.03c1.87,1.22,3.63,2.6,5.26,4.1l13.74-14.98h.01Z"/><path class="cls-2" d="M266.5,27.14c-2.79,1.83-5.44,3.9-7.89,6.17l13.79,14.94c1.63-1.51,3.38-2.89,5.25-4.11l-11.16-16.99h0Z"/><path class="cls-2" d="M353.24,48.9c-1.6-2.93-3.45-5.76-5.52-8.38l-16.03,12.54c1.36,1.75,2.59,3.62,3.66,5.58l17.88-9.74Z"/><path class="cls-2" d="M339.66,84.61l20.16,3.33c.54-3.28,.82-6.64,.82-9.97v-.2l-20.41,.09h0c0,2.3-.19,4.54-.57,6.74h0Z"/><path class="cls-2" d="M359.79,67.86c-.56-3.31-1.39-6.59-2.49-9.76l-19.26,6.66c.72,2.08,1.26,4.25,1.63,6.47l20.12-3.38Z"/><path class="cls-2" d="M251.83,40.69c-2.06,2.64-3.9,5.46-5.49,8.41l17.91,9.68c1.06-1.97,2.28-3.84,3.63-5.6l-16.07-12.49h.01Z"/><path class="cls-2" d="M284.83,19.05c-3.24,.82-6.45,1.93-9.52,3.28l8.2,18.59c2.02-.9,4.14-1.63,6.32-2.18l-5.01-19.69Z"/><path class="cls-2" d="M284.97,136.92c3.24,.82,6.58,1.36,9.91,1.64l1.65-20.45c-2.25-.18-4.44-.54-6.56-1.09l-5.01,19.89h.01Z"/><path class="cls-2" d="M304.86,138.56c3.33-.28,6.68-.83,9.91-1.65l-5.02-19.88c-2.12,.53-4.32,.91-6.56,1.09l1.68,20.45Z"/><path class="cls-2" d="M324.3,133.64c3.05-1.35,6.03-2.95,8.83-4.8l-11.23-17.14c-1.86,1.21-3.81,2.27-5.86,3.17l8.25,18.77Z"/><path class="cls-2" d="M242.35,97.77c1.09,3.17,2.45,6.26,4.05,9.2l17.97-9.77c-1.06-1.94-1.97-3.98-2.7-6.1l-19.33,6.66h.01Z"/><path class="cls-2" d="M239.05,78.04c0,3.34,.28,6.7,.83,9.97l20.16-3.36c-.37-2.16-.56-4.38-.57-6.64l-20.41,.03h-.01Z"/><path class="cls-2" d="M266.61,128.88c2.8,1.83,5.78,3.45,8.83,4.78l8.23-18.78c-2.04-.9-4-1.96-5.86-3.17l-11.21,17.15h0Z"/><path class="cls-2" d="M242.32,58.3c-1.09,3.17-1.91,6.45-2.45,9.77l20.13,3.31c.37-2.22,.9-4.39,1.6-6.47l-19.28-6.59h0Z"/><path class="cls-2" d="M303.11,37.62l1.62-20.24c-1.62-.13-3.26-.19-4.88-.19s-3.41,.08-5.1,.21l1.69,20.24c1.12-.09,2.26-.14,3.41-.14s2.18,.05,3.27,.13h0Z"/><path class="cls-2" d="M268.05,102.77l-16.14,12.6c2.06,2.63,4.33,5.1,6.79,7.36l13.87-15.08c-1.64-1.5-3.14-3.13-4.52-4.88h0Z"/><path class="cls-2" d="M327.14,107.61l13.88,15.07c2.45-2.26,4.73-4.73,6.78-7.37l-16.15-12.58c-1.38,1.75-2.88,3.38-4.52,4.88h.01Z"/><g><path class="cls-2" d="M295.54,68.17l-12.01-27.25c-2.04,.91-4.01,1.98-5.87,3.21l16.34,24.88c.49-.32,1-.61,1.54-.83Z"/><path class="cls-2" d="M290.43,72.92l-26.16-14.15c-1.05,1.96-1.94,4-2.66,6.12l28.14,9.62c.19-.56,.42-1.09,.69-1.6h-.01Z"/><path class="cls-2" d="M292.6,70.1l-20.19-21.86c-1.63,1.51-3.14,3.16-4.51,4.92l23.49,18.26c.37-.47,.77-.92,1.2-1.33h.01Z"/><path class="cls-2" d="M302.47,67.59l7.23-28.89c-2.13-.53-4.34-.91-6.6-1.09l-2.37,29.68c.59,.05,1.17,.14,1.73,.29h.01Z"/><path class="cls-2" d="M298.91,67.32l-2.47-29.67c-2.26,.19-4.46,.56-6.59,1.11l7.35,28.86c.56-.14,1.14-.24,1.73-.29h-.01Z"/><path class="cls-2" d="M305.66,68.99l16.26-24.94c-1.86-1.21-3.82-2.28-5.88-3.18l-11.93,27.29c.54,.24,1.06,.52,1.54,.83h.01Z"/><path class="cls-2" d="M310.52,77.94v.06l29.71-.13c0-2.26-.19-4.47-.54-6.63l-29.32,4.92c.1,.58,.15,1.17,.15,1.78h0Z"/><path class="cls-2" d="M309.94,74.48l28.11-9.72c-.73-2.12-1.63-4.16-2.69-6.11l-26.12,14.24c.28,.5,.5,1.05,.69,1.59h.01Z"/><path class="cls-2" d="M308.27,71.4l23.42-18.34c-1.38-1.75-2.89-3.39-4.52-4.91l-20.12,21.92c.44,.4,.85,.85,1.21,1.31h0Z"/><path class="cls-2" d="M289.33,79.77l-29.29,4.88c.38,2.22,.93,4.38,1.65,6.46l28.08-9.67c-.19-.54-.33-1.1-.43-1.68h-.01Z"/><path class="cls-2" d="M302.48,88.28l7.27,28.75c2.17-.54,4.28-1.27,6.3-2.16l-11.94-27.15c-.53,.23-1.07,.42-1.63,.57h0Z"/><path class="cls-2" d="M308.26,84.49l23.41,18.24c1.36-1.74,2.59-3.61,3.66-5.57l-26.1-14.15c-.28,.52-.61,1.01-.97,1.48Z"/><path class="cls-2" d="M289.18,77.94c0-.59,.05-1.17,.14-1.74l-29.33-4.82c-.34,2.12-.52,4.28-.52,6.49v.15l29.71-.04v-.05h0Z"/><path class="cls-2" d="M309.92,81.44l28.09,9.64c.72-2.08,1.27-4.24,1.64-6.46l-29.31-4.85c-.1,.58-.24,1.14-.43,1.68h0Z"/><path class="cls-2" d="M305.65,86.89l16.26,24.81c1.87-1.21,3.62-2.59,5.25-4.08l-20.09-21.81c-.44,.4-.91,.76-1.4,1.09h-.01Z"/><path class="cls-2" d="M292.65,85.82l-20.08,21.83c1.63,1.5,3.39,2.86,5.25,4.08l16.23-24.82c-.49-.33-.97-.68-1.4-1.09Z"/><path class="cls-2" d="M299.84,88.61c-.3,0-.61-.01-.9-.04l-2.4,29.55c1.09,.09,2.18,.14,3.29,.14s2.25-.05,3.34-.14l-2.44-29.55c-.3,.03-.61,.04-.91,.04Z"/><path class="cls-2" d="M290.46,83.03l-26.07,14.17c1.07,1.96,2.3,3.81,3.66,5.55l23.39-18.26c-.37-.47-.68-.95-.97-1.48h0Z"/><path class="cls-2" d="M295.59,87.72l-11.9,27.16c2.02,.88,4.13,1.6,6.3,2.16l7.23-28.75c-.57-.14-1.11-.33-1.63-.56h0Z"/></g></g><path class="cls-2" d="M115.33,87.19c0,38.81-11.04,50.77-24.46,50.77-9.01,0-16.93-5.34-16.93-18.39v-36.06h-9.19c0,26.67-8.84,54.45-37.71,54.45-15.83,0-27.04-9.38-27.04-23.36,0-20.78,22.63-29.06,48.19-31.82-25.94-1.29-40.47-6.8-40.47-21.88,0-17.12,15.64-27.79,40.66-27.79,26.85,0,43.97,13.06,43.97,42.31v38.63c0,6.07,2.58,8.28,6.07,8.28,5.16,0,15.08-4.6,15.08-37.17,0-17.47-2.95-33.3-6.8-50.23h1.83c3.68,16.93,6.8,32.01,6.8,52.25v.02Zm-41.39-9.94c0-13.79-5.51-28.52-31.64-28.52-15.45,0-26.31,5.34-26.31,15.64,0,12.69,13.79,17.29,46.9,17.29h11.04v-4.41Zm-11.04,6.26c-31.09,0-45.45,9.19-45.45,24.11,0,9.94,6.45,14.72,16,14.72,19.86,0,29.43-15.45,29.43-38.81l.02-.02Z"/><path class="cls-2" d="M232.69,77.27v58.86h-18.39v-55.2c0-21.53-11.04-32.2-29.43-32.2s-33.11,10.67-33.11,32.2v55.18h-18.39V34.94h18.39v34.59c3.68-21.71,17.85-36.42,41.39-36.42,25.75,0,39.56,16.74,39.56,44.16h-.02Z"/><path class="cls-2" d="M453.42,34.94v16.56c-53.89,0-69.91,20.61-69.91,41.58,0,17.66,13.98,27.41,30.35,27.41,17.47,0,37.71-11.59,37.71-39.56h1.83c0,39-14.72,57.03-41.58,57.03s-41.2-20.05-41.2-39.56c0-26.5,21.53-43.05,62.36-46.9h-67.89v-16.56h34.94V0h18.39V34.94h35Z"/><path class="cls-2" d="M572.99,77.27v58.86h-18.39v-55.2c0-21.53-11.04-32.2-29.43-32.2s-33.11,10.67-33.11,32.2v55.18h-18.39V0h18.39V69.53c3.68-21.71,17.85-36.42,41.39-36.42,25.75,0,39.56,16.74,39.56,44.16h-.02Z"/><path class="cls-2" d="M693.49,85.55c0,28.14-16.37,52.43-50.21,52.43s-56.47-24.11-56.47-52.43,22.63-52.43,54.64-52.43c35.69,0,52.06,24.11,52.06,52.43h-.02Zm-1.83,0h-86.46c0,20.24,15.64,35.88,42.31,35.88s43.22-13.98,44.16-35.88Zm-84.26-13.79h66.23c-3.49-13.79-13.06-23.17-32.55-23.17-17.47,0-29.25,9.38-33.67,23.17h0Z"/><path class="cls-2" d="M792.81,73.59h-18.39c0-12.33-4.41-23-18.39-23s-26.67,10.67-26.67,48.75v36.79h-18.39V36.79h18.39v42.49c3.12-30.35,13.98-44.34,33.11-44.34,22.07,0,30.35,16.74,30.35,38.63l-.02,.02Z"/><g><path class="cls-2" d="M183.51,264.08c0,19.13-18.76,32.74-50.59,32.74-29.43,0-45.99-14.35-45.99-32.01,0-9.01,3.87-16.93,11.96-23-5.7-4.05-9.19-9.94-9.19-18.76,0-16,16.74-31.09,47.09-31.09,32.01,0,42.31,16.74,43.05,34.94-24.11,0-42.68,2.02-56.47,5.89,3.68,.56,7.9,1.1,12.88,1.66,34.59,3.68,47.28,11.04,47.28,29.62l-.02,.02Zm-18.39,3.31c0-9.75-7.18-13.25-33.11-16.37-11.4-1.48-22.82-3.12-30.91-7.72-5.89,4.97-8.65,11.04-8.65,17.66,0,15.83,17.1,23.92,34.78,23.92,27.04,0,37.9-9.19,37.9-17.47v-.02Zm-45.8-35.5c11.04-3.31,25.02-5.51,41.95-6.45-.92-8.28-6.99-17.85-27.23-17.85-16.18,0-25.94,6.26-25.94,14.16,0,5.33,3.68,8.28,11.21,10.11v.02Z"/><path class="cls-2" d="M199.13,168.8c0-7.36,6.26-13.6,13.98-13.6s13.6,6.26,13.6,13.6c0,7.72-6.26,13.98-13.6,13.98-7.72,0-13.98-6.26-13.98-13.98Zm23,126.19h-18.39v-101.19h18.39v101.19Z"/><path class="cls-2" d="M350.72,158.86v136.13h-18.39v-40.47c-3.68,23.73-17.29,42.31-43.05,42.31-29.25,0-49.67-24.11-49.67-52.43s20.42-52.43,49.67-52.43c25.75,0,39.37,18.58,43.05,42.31v-75.4h18.39Zm-18.39,85.55c0-20.24-13.79-35.88-36.61-35.88s-36.79,15.64-36.79,35.88,13.98,35.88,36.79,35.88,36.61-15.64,36.61-35.88Z"/><path class="cls-2" d="M474.88,244.4c0,28.14-16.37,52.43-50.23,52.43s-56.47-24.11-56.47-52.43,22.63-52.43,54.64-52.43c35.69,0,52.06,24.11,52.06,52.43h0Zm-1.83,0h-86.46c0,20.24,15.64,35.88,42.31,35.88s43.22-13.98,44.16-35.88Zm-84.26-13.79h66.23c-3.49-13.79-13.06-23.17-32.55-23.17-17.47,0-29.25,9.38-33.67,23.17Z"/></g><polygon class="cls-1" points="99.29 149.32 0 321.69 5.87 321.69 105.16 149.32 99.29 149.32"/></g></svg>